<?xml version="1.0" encoding="UTF-8"?>
<svg id="Layer_1" xmlns="http://www.w3.org/2000/svg" xmlns:xlink="http://www.w3.org/1999/xlink" viewBox="0 0 364.36 320.1">
  <defs>
    <linearGradient id="_책챌청챙횩챠챠청챕_찾챨횪채챔책챠챵_6" data-name="책챌청챙횩챠챠청챕 찾챨횪채챔책챠챵 6" x1="1956.84" y1="-1296.89" x2="1956.84" y2="-817.4" gradientTransform="translate(2271.77 839.94) rotate(-135)" gradientUnits="userSpaceOnUse">
      <stop offset="0" stop-color="#f71631"/>
      <stop offset=".13" stop-color="#c51127"/>
      <stop offset=".31" stop-color="#8a0c1b"/>
      <stop offset=".47" stop-color="#580711"/>
      <stop offset=".63" stop-color="#320409"/>
      <stop offset=".78" stop-color="#160204"/>
      <stop offset=".9" stop-color="#050001"/>
      <stop offset="1" stop-color="#000"/>
    </linearGradient>
    <linearGradient id="linear-gradient" x1="22.92" y1="160.05" x2="343.03" y2="160.05" gradientTransform="translate(-2.69 3.13) rotate(-.97)" gradientUnits="userSpaceOnUse">
      <stop offset="0" stop-color="#f71631"/>
      <stop offset=".13" stop-color="#cc1228"/>
      <stop offset=".37" stop-color="#840b1a"/>
      <stop offset=".59" stop-color="#4b060e"/>
      <stop offset=".77" stop-color="#220306"/>
      <stop offset=".91" stop-color="#090001"/>
      <stop offset="1" stop-color="#000"/>
    </linearGradient>
    <linearGradient id="_책챌청챙횩챠챠청챕_찾챨횪채챔책챠챵_6-2" data-name="책챌청챙횩챠챠청챕 찾챨횪채챔책챠챵 6" x1="0" y1="174.09" x2="60.33" y2="174.09" gradientTransform="matrix(1,0,0,1,0,0)" xlink:href="#_책챌청챙횩챠챠청챕_찾챨횪채챔책챠챵_6"/>
    <linearGradient id="_책챌청챙횩챠챠청챕_찾챨횪채챔책챠챵_6-3" data-name="책챌청챙횩챠챠청챕 찾챨횪채챔책챠챵 6" x1="304.43" y1="173.53" x2="364.36" y2="173.53" gradientTransform="matrix(1,0,0,1,0,0)" xlink:href="#_책챌청챙횩챠챠청챕_찾챨횪채챔책챠챵_6"/>
  </defs>
  <circle cx="182.98" cy="161.34" r="136.79" transform="translate(-60.5 176.64) rotate(-45)" style="fill: url(#_책챌청챙횩챠챠청챕_찾챨횪채챔책챠챵_6); opacity: .2;"/>
  <g>
    <path d="M185.69,320.08c-42.75.73-83.21-15.24-113.95-44.95-30.74-29.71-48.07-69.62-48.79-112.36-.73-42.75,15.24-83.21,44.95-113.95C97.61,18.08,137.51.75,180.26.02s83.21,15.24,113.95,44.95c30.74,29.71,48.07,69.62,48.79,112.36.73,42.75-15.24,83.21-44.95,113.95-29.71,30.74-69.62,48.07-112.36,48.79ZM182.98,3.58c-41.8,0-81.09,16.28-110.64,45.83-29.55,29.55-45.83,68.85-45.83,110.64s16.28,81.09,45.83,110.64c29.55,29.55,68.85,45.83,110.64,45.83s81.09-16.28,110.64-45.83c29.55-29.55,45.83-68.85,45.83-110.64s-16.28-81.09-45.83-110.65C264.07,19.85,224.77,3.58,182.98,3.58Z" style="fill: url(#linear-gradient);"/>
    <g style="opacity: .11;">
      <path d="M53.78,289.29C19.1,254.84,0,208.94,0,160.05c0-36.21,10.6-71.19,30.65-101.17l7.73,5.17c-19.02,28.44-29.08,61.63-29.08,96,0,46.39,18.12,89.95,51.03,122.64l-6.55,6.6Z" style="fill: url(#_책챌청챙횩챠챠청챕_찾챨횪채챔책챠챵_6-2);"/>
    </g>
    <g style="opacity: .11;">
      <path d="M311,288.87l-6.58-6.58c32.65-32.65,50.64-76.07,50.64-122.25,0-34.65-10.21-68.07-29.52-96.66l7.7-5.21c20.36,30.13,31.12,65.35,31.12,101.86,0,48.66-18.95,94.41-53.36,128.82Z" style="fill: url(#_책챌청챙횩챠챠청챕_찾챨횪채챔책챠챵_6-3);"/>
    </g>
  </g>
</svg>