<?xml version="1.0" encoding="UTF-8"?>
<svg xmlns="http://www.w3.org/2000/svg" version="1.1" xmlns:xlink="http://www.w3.org/1999/xlink" viewBox="0 0 602.4 340.6">
  <defs>
    <style>
      .cls-1 {
        fill: url(#linear-gradient-2);
      }

      .cls-2 {
        fill: url(#New_Gradient_Swatch_5);
      }

      .cls-3 {
        display: none;
        fill: url(#radial-gradient-2);
        opacity: .3;
      }

      .cls-4 {
        fill: url(#New_Gradient_Swatch_6-2);
      }

      .cls-5 {
        fill: url(#New_Gradient_Swatch_5-2);
      }

      .cls-6 {
        fill: url(#radial-gradient);
      }

      .cls-7 {
        fill: url(#New_Gradient_Swatch_5-6);
      }

      .cls-8 {
        fill: url(#New_Gradient_Swatch_5-7);
      }

      .cls-9 {
        fill: url(#New_Gradient_Swatch_6);
      }

      .cls-10 {
        fill: url(#New_Gradient_Swatch_5-5);
      }

      .cls-11 {
        fill: url(#New_Gradient_Swatch_5-4);
      }

      .cls-12 {
        fill: url(#New_Gradient_Swatch_5-3);
      }

      .cls-13 {
        fill: url(#linear-gradient);
      }
    </style>
    <linearGradient id="linear-gradient" x1="100.2" y1="372.5" x2="504.5" y2="-31.8" gradientUnits="userSpaceOnUse">
      <stop offset="0" stop-color="#fcee2e"/>
      <stop offset="0" stop-color="#f0c82b"/>
      <stop offset=".1" stop-color="#e19a27"/>
      <stop offset=".2" stop-color="#d47224"/>
      <stop offset=".3" stop-color="#c95121"/>
      <stop offset=".4" stop-color="#c1381f"/>
      <stop offset=".5" stop-color="#bb261e"/>
      <stop offset=".6" stop-color="#b81b1d"/>
      <stop offset=".7" stop-color="#b7181d"/>
      <stop offset="1" stop-color="#772426"/>
    </linearGradient>
    <radialGradient id="New_Gradient_Swatch_6" data-name="New Gradient Swatch 6" cx="302.8" cy="232.2" fx="302.8" fy="232.2" r="209.9" gradientTransform="translate(-1 -3)" gradientUnits="userSpaceOnUse">
      <stop offset="0" stop-color="#fcee2e"/>
      <stop offset=".2" stop-color="#eec42a"/>
      <stop offset=".3" stop-color="#dd9026"/>
      <stop offset=".5" stop-color="#cf6523"/>
      <stop offset=".6" stop-color="#c54320"/>
      <stop offset=".8" stop-color="#bd2b1e"/>
      <stop offset=".9" stop-color="#b81d1d"/>
      <stop offset="1" stop-color="#b7181d"/>
    </radialGradient>
    <radialGradient id="New_Gradient_Swatch_6-2" data-name="New Gradient Swatch 6" cy="72.6" fy="72.6" r="201.4" xlink:href="#New_Gradient_Swatch_6"/>
    <linearGradient id="New_Gradient_Swatch_5" data-name="New Gradient Swatch 5" x1="572.8" y1="23.4" x2="193.5" y2="23.4" gradientUnits="userSpaceOnUse">
      <stop offset="0" stop-color="#fcee1f"/>
      <stop offset=".9" stop-color="#e9b520"/>
      <stop offset="1" stop-color="#e8b121"/>
    </linearGradient>
    <linearGradient id="New_Gradient_Swatch_5-2" data-name="New Gradient Swatch 5" x1="24.5" y1="317.9" x2="408" y2="317.9" xlink:href="#New_Gradient_Swatch_5"/>
    <linearGradient id="New_Gradient_Swatch_5-3" data-name="New Gradient Swatch 5" x1="588.9" y1="130.2" x2="588.9" y2="45.9" xlink:href="#New_Gradient_Swatch_5"/>
    <linearGradient id="New_Gradient_Swatch_5-4" data-name="New Gradient Swatch 5" x1="588.6" y1="129.6" x2="588.6" y2="332.5" xlink:href="#New_Gradient_Swatch_5"/>
    <linearGradient id="New_Gradient_Swatch_5-5" data-name="New Gradient Swatch 5" x1="14.4" y1="130.8" x2="14.4" y2="300.8" xlink:href="#New_Gradient_Swatch_5"/>
    <linearGradient id="New_Gradient_Swatch_5-6" data-name="New Gradient Swatch 5" x1="14.5" y1="131.6" x2="14.5" y2="9.2" xlink:href="#New_Gradient_Swatch_5"/>
    <linearGradient id="New_Gradient_Swatch_5-7" data-name="New Gradient Swatch 5" x1="312.9" y1="0" x2="312.9" y2="323.8" xlink:href="#New_Gradient_Swatch_5"/>
    <linearGradient id="linear-gradient-2" x1="1" y1="179.7" x2="579" y2="179.7" gradientUnits="userSpaceOnUse">
      <stop offset="0" stop-color="#fcee1f"/>
      <stop offset=".9" stop-color="#e9b520"/>
      <stop offset="1" stop-color="#e8b121"/>
    </linearGradient>
    <radialGradient id="radial-gradient" cx="302.8" cy="171.9" fx="302.8" fy="171.9" r="219.6" gradientTransform="translate(-1 -3)" gradientUnits="userSpaceOnUse">
      <stop offset="0" stop-color="#710f11"/>
      <stop offset="1" stop-color="#fcee2e"/>
    </radialGradient>
    <radialGradient id="radial-gradient-2" cx="304.8" cy="81.3" fx="304.8" fy="81.3" r="339.5" gradientTransform="translate(-1 -3)" gradientUnits="userSpaceOnUse">
      <stop offset="0" stop-color="#8350a0"/>
      <stop offset=".8" stop-color="#4a2f7b"/>
      <stop offset="1" stop-color="#3a2670"/>
    </radialGradient>
  </defs>
  <!-- Generator: Adobe Illustrator 28.7.1, SVG Export Plug-In . SVG Version: 1.2.0 Build 142)  -->
  <g>
    <g id="Layer_1">
      <g>
        <g>
          <g>
            <polygon class="cls-13" points="216.4 43.9 216.4 44 178.8 9.6 26 9.6 26 298.3 389.8 298.3 389.8 298.3 424.1 329.7 580.2 329.7 580.2 43.9 216.4 43.9"/>
            <polygon class="cls-9" points="580.2 332.8 423.6 332.8 389.2 299.8 22.5 299.8 22.5 130.8 26 130.8 26 296.3 390.6 296.3 425 329.4 576.7 329.4 576.7 129.6 580.2 129.6 580.2 332.8"/>
            <polygon class="cls-4" points="26 131.6 22.5 131.6 22.5 8.1 178.2 8.1 216.1 42.9 580.2 42.9 580.2 130.2 576.7 130.2 576.7 46.3 214.8 46.3 176.9 11.6 26 11.6 26 131.6"/>
            <polygon class="cls-2" points="193.5 13 216.2 33.8 572.8 33.8 551.7 13 193.5 13"/>
            <polygon class="cls-5" points="386 307.5 24.5 307.5 45.5 328.3 408 328.3 386 307.5"/>
            <polygon class="cls-12" points="585 45.9 592.8 53.4 592.8 130.2 585 130.2 585 45.9"/>
            <path class="cls-11" d="M584.5,332.5l8.3-6.7v-196.2h-8.3s0,204.1,0,202.9Z"/>
            <polygon class="cls-10" points="18.4 300.8 10.4 293.1 10.4 130.8 18.4 130.8 18.4 300.8"/>
            <path class="cls-7" d="M18.7,9.2l-8.3,6.7v115.7h8.3s0-123.6,0-122.4Z"/>
            <polygon class="cls-8" points="601.9 323.8 598.5 323.8 598.5 50.6 551.8 3.5 23.8 3.5 23.8 0 553.2 0 601.9 49.2 601.9 323.8"/>
            <polygon class="cls-1" points="579 340.7 42 340.7 1 299.3 1 18.6 4.5 18.6 4.5 297.9 43.4 337.3 579 337.3 579 340.7"/>
          </g>
          <path class="cls-6" d="M74.1,28.5v-11.7H31.1v28.1h174.3l-17.8-16.4h-113.6ZM470,307.8l-9.7-9.3h-60l26.8,25.7h144.5v-16.4h-101.6Z"/>
        </g>
        <rect class="cls-3" x="31.8" y="51.9" width="537.2" height="258.4"/>
      </g>
    </g>
  </g>
</svg>