<?xml version="1.0" encoding="UTF-8"?>
<svg xmlns="http://www.w3.org/2000/svg" version="1.1" xmlns:xlink="http://www.w3.org/1999/xlink" viewBox="0 0 694.3 389.8">
  <defs>
    <style>
      .cls-1 {
        fill: url(#linear-gradient-2);
      }

      .cls-2 {
        fill: url(#radial-gradient-3);
        opacity: .6;
      }

      .cls-3 {
        fill: url(#linear-gradient-4);
      }

      .cls-4 {
        display: none;
        fill: url(#radial-gradient-2);
        opacity: .3;
      }

      .cls-5 {
        fill: url(#radial-gradient);
      }

      .cls-6 {
        fill: url(#linear-gradient-3);
      }

      .cls-7 {
        fill: url(#New_Gradient_Swatch_2-2);
      }

      .cls-8 {
        fill: url(#New_Gradient_Swatch_2);
      }

      .cls-9 {
        fill: url(#New_Gradient_Swatch_2-4);
      }

      .cls-10 {
        fill: url(#New_Gradient_Swatch_1-2);
      }

      .cls-11 {
        fill: url(#linear-gradient);
      }

      .cls-12 {
        fill: url(#New_Gradient_Swatch_1);
      }

      .cls-13 {
        fill: url(#New_Gradient_Swatch_2-3);
      }
    </style>
    <radialGradient id="New_Gradient_Swatch_2" data-name="New Gradient Swatch 2" cx="347.3" cy="262.6" fx="347.3" fy="262.6" r="232.9" gradientUnits="userSpaceOnUse">
      <stop offset="0" stop-color="#fcee2e"/>
      <stop offset=".1" stop-color="#ecc92b"/>
      <stop offset=".3" stop-color="#d59528"/>
      <stop offset=".5" stop-color="#c26a25"/>
      <stop offset=".6" stop-color="#b34822"/>
      <stop offset=".7" stop-color="#a83021"/>
      <stop offset=".9" stop-color="#a22220"/>
      <stop offset="1" stop-color="#a01d20"/>
    </radialGradient>
    <radialGradient id="New_Gradient_Swatch_2-2" data-name="New Gradient Swatch 2" cy="90.9" fy="90.9" r="224.9" xlink:href="#New_Gradient_Swatch_2"/>
    <radialGradient id="New_Gradient_Swatch_2-3" data-name="New Gradient Swatch 2" cx="438.8" cy="39.1" fx="438.8" fy="39.1" r="150.2" xlink:href="#New_Gradient_Swatch_2"/>
    <radialGradient id="New_Gradient_Swatch_2-4" data-name="New Gradient Swatch 2" cx="252.2" cy="352.1" fx="252.2" fy="352.1" r="151.8" xlink:href="#New_Gradient_Swatch_2"/>
    <linearGradient id="linear-gradient" x1="668.9" y1="157.2" x2="668.9" y2="64" gradientUnits="userSpaceOnUse">
      <stop offset="0" stop-color="#fcee2e"/>
      <stop offset=".1" stop-color="#ecc92b"/>
      <stop offset=".3" stop-color="#d59528"/>
      <stop offset=".5" stop-color="#c26a25"/>
      <stop offset=".6" stop-color="#b34822"/>
      <stop offset=".7" stop-color="#a83021"/>
      <stop offset=".9" stop-color="#a22220"/>
      <stop offset="1" stop-color="#a01d20"/>
    </linearGradient>
    <linearGradient id="linear-gradient-2" x1="668.6" y1="156.6" x2="668.6" y2="368.3" xlink:href="#linear-gradient"/>
    <linearGradient id="linear-gradient-3" x1="26.4" y1="157.9" x2="26.4" y2="333.2" xlink:href="#linear-gradient"/>
    <linearGradient id="linear-gradient-4" x1="26.6" y1="158.8" x2="26.6" y2="23.3" xlink:href="#linear-gradient"/>
    <radialGradient id="New_Gradient_Swatch_1" data-name="New Gradient Swatch 1" cx="360.2" cy="185.9" fx="360.2" fy="185.9" r="259.2" gradientUnits="userSpaceOnUse">
      <stop offset="0" stop-color="#fcee1f"/>
      <stop offset=".9" stop-color="#e9b520"/>
      <stop offset="1" stop-color="#e8b121"/>
    </radialGradient>
    <radialGradient id="New_Gradient_Swatch_1-2" data-name="New Gradient Swatch 1" cx="334.6" cy="205.6" fx="334.6" fy="205.6" r="258.8" xlink:href="#New_Gradient_Swatch_1"/>
    <radialGradient id="radial-gradient" cx="347.3" cy="195.4" fx="347.3" fy="195.4" r="243" gradientUnits="userSpaceOnUse">
      <stop offset="0" stop-color="#fcee2e"/>
      <stop offset=".2" stop-color="#dcbc27"/>
      <stop offset=".3" stop-color="#bc8720"/>
      <stop offset=".5" stop-color="#a15c1b"/>
      <stop offset=".6" stop-color="#8c3a16"/>
      <stop offset=".7" stop-color="#7d2213"/>
      <stop offset=".9" stop-color="#741411"/>
      <stop offset="1" stop-color="#710f11"/>
    </radialGradient>
    <radialGradient id="radial-gradient-2" cx="349.5" cy="100.7" fx="349.5" fy="100.7" r="379.1" gradientUnits="userSpaceOnUse">
      <stop offset="0" stop-color="#8350a0"/>
      <stop offset=".8" stop-color="#4a2f7b"/>
      <stop offset="1" stop-color="#3a2670"/>
    </radialGradient>
    <radialGradient id="radial-gradient-3" cx="347.3" cy="195.4" fx="171.1" fy="246.8" r="252.2" gradientUnits="userSpaceOnUse">
      <stop offset="0" stop-color="#fcee2e"/>
      <stop offset=".2" stop-color="#ecc92b"/>
      <stop offset=".3" stop-color="#d59528"/>
      <stop offset=".5" stop-color="#c26a25"/>
      <stop offset=".6" stop-color="#b34822"/>
      <stop offset=".7" stop-color="#a83021"/>
      <stop offset=".9" stop-color="#a22220"/>
      <stop offset="1" stop-color="#a01d20"/>
    </radialGradient>
  </defs>
  <!-- Generator: Adobe Illustrator 28.7.1, SVG Export Plug-In . SVG Version: 1.2.0 Build 142)  -->
  <g>
    <g id="Layer_1">
      <g>
        <g>
          <g>
            <polygon class="cls-8" points="659.1 368.7 484.1 368.7 445.6 332.1 35.5 332.1 35.5 157.9 39.4 157.9 39.4 328.2 447.1 328.2 485.6 364.8 655.3 364.8 655.3 156.6 659.1 156.6 659.1 368.7"/>
            <polygon class="cls-7" points="39.4 158.8 35.5 158.8 35.5 22.1 209.6 22.1 252 60.6 659.1 60.6 659.1 157.2 655.3 157.2 655.3 64.5 250.5 64.5 208.1 26 39.4 26 39.4 158.8"/>
            <polygon class="cls-13" points="226.7 27.5 252.1 50.6 650.9 50.6 627.3 27.5 226.7 27.5"/>
            <polygon class="cls-9" points="442 340.6 37.7 340.6 61.2 363.7 466.6 363.7 442 340.6"/>
            <polygon class="cls-11" points="664.5 64 673.2 72.2 673.2 157.2 664.5 157.2 664.5 64"/>
            <path class="cls-1" d="M663.9,368.3l9.3-7.4v-204.3h-9.3s0,212.9,0,211.7Z"/>
            <polygon class="cls-6" points="30.9 333.2 22 324.7 22 157.9 30.9 157.9 30.9 333.2"/>
            <path class="cls-3" d="M31.3,23.4l-9.3,7.4v128.1h9.3s0-136.8,0-135.5Z"/>
            <polygon class="cls-12" points="683.4 358.7 679.6 358.7 679.6 69.2 627.4 17 36.9 17 36.9 13.2 629 13.2 683.4 67.6 683.4 358.7"/>
            <polygon class="cls-10" points="657.8 377.4 57.3 377.4 11.5 331.5 11.5 33.8 15.3 33.8 15.3 330 58.9 373.6 657.8 373.6 657.8 377.4"/>
          </g>
          <path class="cls-5" d="M93.2,44.7v-13h-48v31.1h194.9l-19.9-18.1h-127ZM535.9,340.9l-10.9-10.3h-67.1l29.9,28.4h161.6v-18.1h-113.6Z"/>
        </g>
        <rect class="cls-4" x="45.9" y="70.6" width="600.8" height="286"/>
      </g>
      <polygon class="cls-2" points="622 22.1 35.5 22.1 35.5 338.1 66.2 368.7 659.1 368.7 659.1 59.3 622 22.1"/>
    </g>
  </g>
</svg>